<svg xmlns="http://www.w3.org/2000/svg" xml:space="preserve" id="Reference" width="20" height="20" x="0" y="0" style="enable-background:new 0 0 20 20" version="1.1"><style>.st0{fill:#bc70c4}.st1{fill:#fff}</style><path d="M17.7 3.6v2h-3.2V2.3h1.9c.8 0 1.3.6 1.3 1.3zM2.3 10.4h3.2v3.5H2.3zm8.1 0h7.3v3.4h-7.3z" class="st0"/><path d="M16.4 1.4H3.5c-1.2 0-2.2 1-2.2 2.2v12.9c0 1.2 1 2.1 2.2 2.1h12.9c1.2 0 2.1-1 2.1-2.1v-13c.1-1.1-.9-2.1-2.1-2.1zm-6 .9h3.2v3.2h-3.2V2.3zM2.3 3.5c0-.7.6-1.3 1.3-1.3h6v3.2H2.3V3.5zm0 2.8h11.4v3.2H2.3V6.3zm7.3 4.1v3.2H6.3v-3.2h3.3zm-4.1 7.3h-2c-.7 0-1.3-.6-1.3-1.3v-1.9h3.2v3.2zm0-4H2.3v-3.2h3.2v3.2zm12.2 2.7c0 .7-.6 1.3-1.3 1.3H6.3v-3.2h11.4v1.9zm0-2.7h-7.3v-3.2h7.3v3.2zm0-4.1h-3.2V6.3h3.2v3.3zm0-4.1h-3.2V2.3h1.9c.7 0 1.3.6 1.3 1.3v1.9z"/><path d="M5.5 14.5v3.2h-2c-.7 0-1.3-.6-1.3-1.3v-1.9h3.3zm.8-4.1h3.2v3.2H6.3zm8.2-4.1h3.2v3.2h-3.2zm-4.1-4h3.2v3.2h-3.2z" class="st1"/><path d="M17.7 14.5v1.9c0 .7-.6 1.3-1.3 1.3H6.3v-3.2h11.4zM2.3 6.3h11.4v3.2H2.3zm7.3-4v3.2H2.3v-2c0-.7.6-1.3 1.3-1.3h6z" class="st0"/></svg>