<?xml version="1.0" encoding="UTF-8" standalone="no"?>
<!DOCTYPE svg PUBLIC "-//W3C//DTD SVG 1.1//EN" "http://www.w3.org/Graphics/SVG/1.1/DTD/svg11.dtd">
<svg width="100%" height="100%" viewBox="0 0 48 48" version="1.1" xmlns="http://www.w3.org/2000/svg" xmlns:xlink="http://www.w3.org/1999/xlink" xml:space="preserve" xmlns:serif="http://www.serif.com/" style="fill-rule:evenodd;clip-rule:evenodd;stroke-linecap:round;stroke-linejoin:round;">
    <g transform="matrix(0.807098,-0.807098,0.811972,0.811972,3.793793,23.163663)">
        <path d="M11.525,2.295C11.614,2.115 11.799,2 12,2C12.201,2 12.386,2.115 12.475,2.295L14.785,6.974C15.094,7.599 15.691,8.033 16.38,8.134L21.546,8.89C21.805,8.928 22,9.152 22,9.415C22,9.557 21.942,9.694 21.84,9.794L18.104,13.432C17.604,13.919 17.375,14.622 17.493,15.31L18.375,20.45C18.38,20.48 18.383,20.511 18.383,20.542C18.383,20.833 18.144,21.072 17.853,21.072C17.766,21.072 17.681,21.051 17.604,21.01L12.986,18.582C12.369,18.258 11.63,18.258 11.013,18.582L6.396,21.01C6.32,21.05 6.234,21.072 6.148,21.072C5.857,21.072 5.618,20.832 5.618,20.542C5.618,20.511 5.621,20.48 5.626,20.45L6.507,15.311C6.625,14.623 6.396,13.919 5.896,13.432L2.16,9.795C2.057,9.695 1.998,9.557 1.998,9.414C1.998,9.151 2.194,8.926 2.454,8.889L7.619,8.134C8.309,8.034 8.907,7.599 9.216,6.974L11.525,2.295Z" style="fill:none;fill-rule:nonzero;stroke:black;stroke-opacity:0.27;stroke-width:2px;"/>
    </g>
</svg>
