<svg xmlns="http://www.w3.org/2000/svg" xml:space="preserve" style="fill-rule:evenodd;clip-rule:evenodd;stroke-linejoin:round;stroke-miterlimit:2" viewBox="0 0 20 20"><g transform="translate(1.3 1.3)scale(.27187)"><clipPath id="a"><path d="M64 4v56c0 2.208-1.792 4-4 4H4c-2.208 0-4-1.792-4-4V4c0-2.208 1.792-4 4-4h56c2.208 0 4 1.792 4 4Z"/></clipPath><g clip-path="url(#a)"><path d="M56 0H8C3.611 0 0 3.611 0 8v48c0 4.389 3.611 8 8 8h48c4.389 0 8-3.611 8-8V8c0-4.389-3.611-8-8-8Z" style="fill:#bc70c4;fill-rule:nonzero"/><path d="M11.856 11.856h40.288v40.288H11.856z" style="fill:#762580;fill-rule:nonzero"/><path d="m32.518 16.404 4.547 9.992c.074.162.23.274.403.292l10.645 1.069a.5.5 0 0 1 .286.863l-8.273 7.639a.51.51 0 0 0-.149.478l2.41 10.123c.1.429-.36.77-.739.54l-9.322-5.608a.512.512 0 0 0-.516 0l-9.328 5.615a.497.497 0 0 1-.739-.54l2.41-10.124a.479.479 0 0 0-.15-.478l-8.272-7.651a.502.502 0 0 1 .286-.864l10.645-1.068a.509.509 0 0 0 .404-.292l4.546-9.993a.5.5 0 0 1 .906.007Z" style="fill:#fff;fill-rule:nonzero"/></g></g></svg>