<svg xmlns="http://www.w3.org/2000/svg" width="62" height="62" fill="none"><path fill="#7FA768" d="M41.761 21.13h-.01v.01h.01v-.01Z"/><path fill="#6AAA64" d="M41.751 22.652v35.47h12.87c1.932 0 3.504-1.552 3.504-3.464V22.732l-16.374-.08Z"/><path fill="#fff" d="M57.554 7.229v12.49l-15.783-.07.07-15.803h12.33a3.391 3.391 0 0 1 3.383 3.383Z"/><path fill="#6AAA64" d="M39.65 40.797V58.1H22.504V40.717l17.144.08Z"/><path fill="#D1B036" d="m39.89 21.54-.09 17.946-17.926-.1.08-17.915 17.935.07Z"/><path fill="#fff" d="m38.838 3.846-.07 15.783-15.803-.06V3.846h15.873Z"/><path fill="#6AAA64" d="M21.244 40.627V58.19H7.412a3.75 3.75 0 0 1-3.743-3.743v-13.82h17.575Z"/><path fill="#fff" d="m19.953 22.652-.08 15.783H4.038V22.65h15.914Zm.01-18.806v15.803H4.039V7.229a3.394 3.394 0 0 1 3.393-3.383h12.53Z"/><path fill="#000" d="M54.135 1H7.395C3.872 1 1 3.862 1 7.385v46.74c0 3.523 2.872 6.395 6.395 6.395h46.74c3.523 0 6.385-2.872 6.385-6.395V7.385C60.52 3.872 57.658 1 54.135 1Zm-12.42 20.297h.01v.01h-.01v-.01ZM4.012 22.818h15.913l-.08 15.784H4.013V22.818Zm15.913 34.71H7.396a3.396 3.396 0 0 1-3.393-3.393v-12.54h15.923v15.933Zm0-37.712H4.013V7.386a3.394 3.394 0 0 1 3.392-3.383h12.53v15.813h-.01Zm18.786 37.712H22.928V41.524l15.784.08v15.924Zm-.08-18.936-15.784-.08.07-15.784 15.794.06-.08 15.804Zm.1-18.796-15.804-.06V4.003h15.874l-.07 15.793Zm18.786 34.339a3.394 3.394 0 0 1-3.383 3.393h-12.42V41.594h15.802v12.54Zm0-15.543H41.643l.07-15.784 15.804.07v15.714Zm0-18.706-15.784-.07.07-15.803h12.33a3.392 3.392 0 0 1 3.383 3.382v12.49Z"/></svg>