<svg xmlns="http://www.w3.org/2000/svg" width="64" height="64" fill="none"><g clip-path="url(#a)"><path fill="#3C6FD3" d="M56 0H8a8 8 0 0 0-8 8v48a8 8 0 0 0 8 8h48a8 8 0 0 0 8-8V8a8 8 0 0 0-8-8Z"/><path fill="#083AAA" d="M52.144 11.856H11.856v40.288h40.288V11.856Z"/><path fill="#fff" d="m32.518 16.404 4.547 9.992c.074.162.23.274.403.292l10.645 1.069a.498.498 0 0 1 .286.863l-8.273 7.639a.51.51 0 0 0-.149.478l2.41 10.123c.1.429-.36.77-.739.54l-9.322-5.608a.51.51 0 0 0-.516 0l-9.328 5.615a.495.495 0 0 1-.739-.54l2.41-10.124a.48.48 0 0 0-.15-.478l-8.272-7.651a.5.5 0 0 1 .286-.864l10.645-1.068a.508.508 0 0 0 .404-.292l4.546-9.993a.499.499 0 0 1 .906.007Z"/></g><defs><clipPath id="a"><rect width="64" height="64" fill="#fff" rx="4"/></clipPath></defs></svg>